<?xml version="1.0" encoding="UTF-8" standalone="no"?><!DOCTYPE svg PUBLIC "-//W3C//DTD SVG 1.1//EN" "http://www.w3.org/Graphics/SVG/1.1/DTD/svg11.dtd"><svg width="100%" height="100%" viewBox="0 0 300 280" version="1.1" xmlns="http://www.w3.org/2000/svg" xmlns:xlink="http://www.w3.org/1999/xlink" xml:space="preserve" xmlns:serif="http://www.serif.com/" style="fill-rule:evenodd;clip-rule:evenodd;stroke-linejoin:round;stroke-miterlimit:2;"><rect id="Artboard6" x="0" y="0" width="300" height="279.07" style="fill:none;"/><clipPath id="_clip1"><rect x="0" y="0" width="300" height="279.07"/></clipPath><g clip-path="url(#_clip1)"><g><path d="M189.173,132.558l-118.605,-20.93l0,154.653c0,7.063 5.725,12.789 12.788,12.789l204.656,0c7.063,0 12.789,-5.726 12.789,-12.789l0,-56.979l-111.628,-76.744Z" style="fill:#185c37;fill-rule:nonzero;"/><path d="M189.173,0l-105.817,0c-7.063,0 -12.788,5.726 -12.788,12.788l0,56.979l118.605,69.768l62.79,20.93l48.838,-20.93l0,-69.768l-111.628,-69.767Z" style="fill:#21a366;fill-rule:nonzero;"/><rect x="70.568" y="69.767" width="118.605" height="69.767" style="fill:#107c41;fill-rule:nonzero;"/><path d="M155.454,55.814l-84.886,0l0,174.419l84.886,0c7.053,-0.023 12.765,-5.736 12.788,-12.789l0,-148.842c-0.023,-7.053 -5.735,-12.765 -12.788,-12.788Z" style="fill-opacity:0.1;fill-rule:nonzero;"/><path d="M148.477,62.791l-77.909,0l0,174.418l77.909,0c7.054,-0.023 12.766,-5.735 12.789,-12.788l0,-148.842c-0.023,-7.053 -5.735,-12.765 -12.789,-12.788Z" style="fill-opacity:0.2;fill-rule:nonzero;"/><path d="M148.477,62.791l-77.909,0l0,160.465l77.909,0c7.054,-0.023 12.766,-5.735 12.789,-12.789l0,-134.888c-0.023,-7.053 -5.735,-12.765 -12.789,-12.788Z" style="fill-opacity:0.2;fill-rule:nonzero;"/><path d="M141.501,62.791l-70.933,0l0,160.465l70.933,0c7.053,-0.023 12.765,-5.735 12.788,-12.789l0,-134.888c-0.023,-7.053 -5.735,-12.765 -12.788,-12.788Z" style="fill-opacity:0.2;fill-rule:nonzero;"/><path d="M13.589,62.791l127.911,0c7.063,0 12.789,5.725 12.789,12.788l0,127.912c0,7.062 -5.726,12.788 -12.789,12.788l-127.911,0c-7.063,0 -12.788,-5.725 -12.788,-12.788l0,-127.912c0,-7.063 5.725,-12.788 12.788,-12.788Z" style="fill:url(#_Linear2);fill-rule:nonzero;"/><path d="M40.407,181.102l26.903,-41.686l-24.649,-41.456l19.828,0l13.451,26.512c1.242,2.519 2.093,4.388 2.554,5.623l0.174,0c0.884,-2.009 1.814,-3.96 2.791,-5.853l14.379,-26.268l18.202,0l-25.277,41.212l25.919,41.916l-19.368,0l-15.537,-29.1c-0.732,-1.238 -1.353,-2.538 -1.855,-3.886l-0.231,0c-0.455,1.32 -1.059,2.584 -1.8,3.768l-15.997,29.218l-19.487,0Z" style="fill:#fff;fill-rule:nonzero;"/><path d="M288.012,0l-98.839,0l0,69.767l111.628,0l0,-56.979c0,-7.062 -5.726,-12.788 -12.789,-12.788Z" style="fill:#33c481;fill-rule:nonzero;"/><rect x="189.173" y="139.535" width="111.628" height="69.767" style="fill:#107c41;fill-rule:nonzero;"/></g></g><defs><linearGradient id="_Linear2" x1="0" y1="0" x2="1" y2="0" gradientUnits="userSpaceOnUse" gradientTransform="matrix(100.16,173.474,-173.474,100.16,27.4645,52.7981)"><stop offset="0" style="stop-color:#18884f;stop-opacity:1"/><stop offset="0.5" style="stop-color:#117e43;stop-opacity:1"/><stop offset="1" style="stop-color:#0b6631;stop-opacity:1"/></linearGradient></defs></svg>